<svg width="7" height="13" viewBox="0 0 7 13" fill="none" xmlns="http://www.w3.org/2000/svg">
<path fill-rule="evenodd" clip-rule="evenodd" d="M6.82834 0.386169C6.79689 0.310296 6.75079 0.241364 6.69268 0.183319C6.63463 0.125209 6.5657 0.0791092 6.48983 0.0476561C6.41396 0.0162029 6.33263 1.52588e-05 6.25049 1.52588e-05C6.16836 1.52588e-05 6.08703 0.0162029 6.01115 0.0476561C5.93528 0.0791092 5.86635 0.125209 5.8083 0.183319L0.183304 5.80832C0.125194 5.86636 0.0790945 5.9353 0.0476418 6.01117C0.0161892 6.08704 0 6.16837 0 6.25051C0 6.33264 0.0161892 6.41397 0.0476418 6.48984C0.0790945 6.56572 0.125194 6.63465 0.183304 6.69269L5.8083 12.3177C5.92558 12.435 6.08464 12.5009 6.25049 12.5009C6.41634 12.5009 6.5754 12.435 6.69268 12.3177C6.80995 12.2004 6.87584 12.0414 6.87584 11.8755C6.87584 11.7097 6.80995 11.5506 6.69268 11.4333L2.13409 6.87551C1.78557 6.53172 1.78557 5.9693 2.13409 5.62551L6.69268 1.06769C6.75079 1.00965 6.79689 0.940719 6.82834 0.864845C6.85979 0.788972 6.87598 0.707641 6.87598 0.625506C6.87598 0.543372 6.85979 0.462043 6.82834 0.386169Z" fill="#656565"/>
</svg>
