<svg width="20" height="19" viewBox="0 0 20 19" fill="none" xmlns="http://www.w3.org/2000/svg">
<path d="M1.5 6.75131H9V9.75131H1.5V6.75131Z" fill="#2C2C2C"/>
<path d="M18 9.75131H10.5V6.75131H18V9.75131Z" fill="#2C2C2C"/>
<path d="M3 11.2513H9V17.2513H3V11.2513Z" fill="#2C2C2C"/>
<path d="M16.5 17.2513H10.5V11.2513H16.5V17.2513Z" fill="#2C2C2C"/>
<path fill-rule="evenodd" clip-rule="evenodd" d="M14.7113 5.25131H18C18.3978 5.25131 18.7794 5.40934 19.0607 5.69065C19.342 5.97195 19.5 6.35348 19.5 6.75131V9.75131H18V6.75131H10.5H9H1.5V9.75131H0V6.75131C0 6.35348 0.158035 5.97195 0.43934 5.69065C0.720644 5.40934 1.10218 5.25131 1.5 5.25131H4.78875C4.76721 5.23198 4.74535 5.21363 4.72374 5.19549C4.70866 5.18283 4.6937 5.17027 4.67906 5.15756C4.39434 4.9046 4.16486 4.59561 4.005 4.24992C3.84514 3.90423 3.75833 3.52927 3.75 3.1485C3.73768 2.73194 3.81064 2.31726 3.96438 1.92992C4.11812 1.54258 4.34941 1.19075 4.64405 0.896026C4.93868 0.601304 5.29044 0.369911 5.67774 0.216053C6.06503 0.0621946 6.47969 -0.0108821 6.89625 0.00130888C7.27718 0.00951374 7.65232 0.0962635 7.99818 0.256128C8.34405 0.415992 8.65318 0.645529 8.90625 0.930371C9.25642 1.33621 9.5411 1.79422 9.75 2.28787C9.9589 1.79422 10.2436 1.33621 10.5938 0.930371C10.8468 0.645529 11.156 0.415992 11.5018 0.256128C11.8477 0.0962635 12.2228 0.00951374 12.6038 0.00130888C13.0203 -0.0108821 13.435 0.0621946 13.8223 0.216053C14.2096 0.369911 14.5613 0.601304 14.856 0.896026C15.1506 1.19075 15.3819 1.54258 15.5356 1.92992C15.6894 2.31726 15.7623 2.73194 15.75 3.1485C15.7417 3.52927 15.6549 3.90423 15.495 4.24992C15.3351 4.59561 15.1057 4.9046 14.8209 5.15756C14.7954 5.18112 14.7688 5.20323 14.7423 5.22528C14.7319 5.23394 14.7216 5.24259 14.7113 5.25131ZM1.5 11.2513V17.2513C1.5 17.6491 1.65804 18.0307 1.93934 18.312C2.22064 18.5933 2.60218 18.7513 3 18.7513H9V17.2513H3V11.2513H1.5ZM10.5 18.7513H16.5C16.8978 18.7513 17.2794 18.5933 17.5607 18.312C17.842 18.0307 18 17.6491 18 17.2513V11.2513H16.5V17.2513H10.5V18.7513ZM11.7188 1.92412C11.8375 1.79298 11.9821 1.68781 12.1434 1.61522C12.3047 1.54262 12.4793 1.50415 12.6562 1.50225H12.7022C12.9095 1.50354 13.1145 1.54621 13.3052 1.62775C13.4958 1.70929 13.6683 1.82806 13.8124 1.9771C13.9566 2.12615 14.0695 2.30246 14.1447 2.49572C14.2198 2.68898 14.2556 2.89529 14.25 3.10256C14.2481 3.27946 14.2096 3.45406 14.137 3.6154C14.0644 3.77673 13.9593 3.92131 13.8281 4.04006C12.9384 4.82756 11.4619 5.10506 10.5469 5.20256C10.6594 4.20975 10.9688 2.76693 11.7188 1.92412ZM5.71031 1.95787C6.00088 1.66733 6.39441 1.50325 6.80531 1.50131H6.85125C7.02815 1.50322 7.20275 1.54168 7.36409 1.61428C7.52542 1.68688 7.67 1.79205 7.78875 1.92318C8.57531 2.81193 8.85281 4.28568 8.95031 5.19693C8.03906 5.10318 6.56531 4.82193 5.67656 4.03537C5.54543 3.91662 5.44026 3.77204 5.36766 3.61071C5.29506 3.44938 5.2566 3.27478 5.25469 3.09787C5.24887 2.88715 5.28593 2.67745 5.36361 2.48149C5.44128 2.28552 5.55796 2.10738 5.70656 1.95787H5.71031Z" fill="#2C2C2C"/>
</svg>
