<svg width="20" height="20" viewBox="0 0 20 20" fill="none" xmlns="http://www.w3.org/2000/svg">
<path d="M0.945896 0.0617628C0.566536 0.194762 0.218464 0.538996 0.0698485 0.930171C-0.00445906 1.12576 -0.00445906 1.23138 0.00336279 3.38675L0.0150956 5.64383L0.148067 5.89027C0.308415 6.18365 0.550892 6.41836 0.848122 6.55527L1.07105 6.66089H4.59088H8.11071L8.34536 6.54745C8.64259 6.3988 8.90463 6.13671 9.05324 5.83942L9.16666 5.60472V3.3359V1.06708L9.06106 0.844113C8.92418 0.54682 8.68953 0.304291 8.39621 0.143909L8.14982 0.01091L4.64954 0.00308657C1.36828 -0.00473738 1.13753 -0.000825405 0.945896 0.0617628ZM7.77828 1.29396L7.87605 1.34482L7.88779 3.30461C7.89561 5.04925 7.88779 5.27222 7.83303 5.32698C7.77828 5.38175 7.43803 5.38957 4.57523 5.38957C1.64595 5.38957 1.36828 5.38566 1.32134 5.32307C1.27441 5.27222 1.26659 4.90842 1.26659 3.32808V1.39176L1.36045 1.31744C1.44649 1.24702 1.556 1.24311 4.56741 1.24311C7.00001 1.24311 7.70006 1.25485 7.77828 1.29396Z" fill="#2C2C2C"/>
<path d="M11.8379 0.0460291C11.4389 0.190763 11.1261 0.47241 10.9501 0.847939L10.8484 1.067V5.83933V10.6117L10.9618 10.8464C11.1104 11.1437 11.3725 11.4058 11.6697 11.5544L11.9043 11.6678H15.4242H18.944L19.1669 11.5622C19.4642 11.4253 19.7066 11.1906 19.867 10.8972L20 10.6508V5.83933V1.02788L19.8944 0.812733C19.7575 0.534998 19.4759 0.253352 19.1982 0.116441L18.9831 0.0108232L15.4828 0.00300026C12.6709 -0.00482368 11.9552 0.00299931 11.8379 0.0460291ZM18.6546 1.31735L18.7485 1.39167V5.83151C18.7485 9.53203 18.7406 10.2792 18.6937 10.33C18.6468 10.3926 18.3691 10.3965 15.4398 10.3965C12.5809 10.3965 12.2368 10.3887 12.182 10.3339C12.1234 10.2792 12.1194 9.82932 12.1273 5.80804L12.139 1.34473L12.2368 1.29388C12.315 1.25476 13.015 1.24302 15.4476 1.24302C18.459 1.24302 18.5686 1.24694 18.6546 1.31735Z" fill="#2C2C2C"/>
<path d="M1.02416 8.37818C0.636974 8.50336 0.328011 8.76545 0.124643 9.15271L0.0151367 9.36003V14.1715V18.9829L0.120732 19.1981C0.257614 19.4758 0.539201 19.7575 0.816876 19.8944L1.03198 20H4.59092H8.14986L8.39625 19.867C8.68957 19.7066 8.92422 19.4641 9.06111 19.1668L9.1667 18.9438V14.1715V9.39915L9.05328 9.16444C8.90467 8.86715 8.64264 8.60506 8.34541 8.45642L8.11075 8.34298L4.64958 8.33515C1.865 8.33124 1.15713 8.33907 1.02416 8.37818ZM7.83308 9.67688C7.88783 9.73165 7.89565 10.1932 7.89565 14.1871C7.89565 18.2827 7.89174 18.6465 7.82917 18.6935C7.77832 18.7404 7.21515 18.7482 4.61047 18.76C1.5404 18.7678 1.45045 18.7678 1.36049 18.6935L1.26663 18.6192V14.1793C1.26663 10.4788 1.27445 9.73165 1.32139 9.6808C1.36832 9.61821 1.64599 9.6143 4.57528 9.6143C7.43025 9.6143 7.77832 9.62212 7.83308 9.67688Z" fill="#2C2C2C"/>
<path d="M11.8143 13.4087C11.5249 13.5143 11.2667 13.7099 11.0908 13.9563C10.8209 14.3436 10.8248 14.3162 10.8365 16.7572L10.8483 18.9438L10.9539 19.1668C11.0908 19.4641 11.3254 19.7066 11.6187 19.867L11.8651 20H15.4241H18.983L19.1981 19.8944C19.4758 19.7575 19.7574 19.4758 19.8942 19.1981L19.9998 18.9829V16.675V14.3671L19.8669 14.1206C19.7065 13.8273 19.464 13.5925 19.1668 13.4556L18.9439 13.35L15.4827 13.3422C12.1545 13.3344 12.0137 13.3344 11.8143 13.4087ZM18.6936 14.6878C18.7405 14.7387 18.7483 15.1025 18.7483 16.6828V18.6192L18.6545 18.6935C18.5684 18.7639 18.4589 18.7678 15.4475 18.7678C13.0149 18.7678 12.3149 18.7561 12.2367 18.7169L12.1389 18.6661L12.1272 16.7063C12.1193 14.9617 12.1272 14.7387 12.1819 14.6839C12.2367 14.6292 12.5769 14.6213 15.4397 14.6213C18.369 14.6213 18.6467 14.6253 18.6936 14.6878Z" fill="#2C2C2C"/>
</svg>
