<svg width="19" height="18" viewBox="0 0 19 18" fill="none" xmlns="http://www.w3.org/2000/svg">
<path d="M8.6894 0.0682945C7.56635 0.295824 6.66382 1.06864 6.26361 2.14352C6.14109 2.47305 6.13701 2.50443 6.13701 3.15172C6.13701 3.799 6.14109 3.83038 6.26361 4.15991C6.5944 5.04257 7.25189 5.71731 8.12175 6.06645C8.28919 6.12922 8.49338 6.19591 8.57914 6.2116L8.73024 6.23906V7.29433V8.3496H7.10896C5.3815 8.3496 4.53206 8.38883 4.13593 8.4869C3.7398 8.58497 3.41309 8.75758 3.18031 8.99688C2.77193 9.41271 2.6535 9.82462 2.61266 10.9937L2.58407 11.7743L2.33904 11.841C1.33034 12.1195 0.517657 12.8688 0.174615 13.8456C-0.327696 15.254 0.284878 16.8349 1.61212 17.5763C2.1471 17.8745 2.629 18 3.27833 18C4.24619 18 5.05479 17.6666 5.68779 17.0114C6.03083 16.6544 6.2391 16.3171 6.41062 15.8424C6.53722 15.4854 6.54131 15.4462 6.54131 14.8617C6.54131 14.2771 6.53722 14.2379 6.41062 13.8809C6.04308 12.857 5.24265 12.1195 4.18085 11.8214L3.93991 11.7547L3.96441 11.0407C3.99708 9.95407 4.05834 9.82069 4.59332 9.7187C5.0017 9.63632 13.7656 9.63632 14.174 9.7187C14.709 9.82069 14.7702 9.95407 14.8029 11.0407L14.8274 11.7469L14.4762 11.8567C13.9698 12.0136 13.5451 12.2686 13.1571 12.6413C12.7691 13.014 12.5445 13.367 12.3567 13.8809C12.226 14.2418 12.2219 14.2732 12.226 14.8617C12.226 15.4462 12.2301 15.4854 12.3567 15.8424C12.5282 16.3171 12.7528 16.6819 13.0877 17.0232C13.5451 17.4861 14.0719 17.7764 14.7294 17.9294C15.0193 17.9922 15.1745 18.0039 15.6115 17.9922C16.073 17.9765 16.1914 17.9568 16.5181 17.8509C17.8004 17.4312 18.6499 16.3798 18.756 15.0892C18.8786 13.6259 17.8862 12.2411 16.4283 11.841L16.1832 11.7743L16.1546 10.9937C16.1138 9.82462 15.9954 9.41271 15.587 8.99688C15.3542 8.75758 15.0275 8.58497 14.6314 8.4869C14.2352 8.38883 13.3858 8.3496 11.6624 8.3496H10.0371V7.29433V6.23906L10.1923 6.2116C10.4454 6.16845 10.9273 5.95661 11.2418 5.75262C11.9075 5.32502 12.4261 4.59536 12.5895 3.84608C12.6671 3.5087 12.6671 2.79473 12.5895 2.45736C12.2219 0.790113 10.4577 -0.288692 8.6894 0.0682945ZM9.75936 1.33148C10.3515 1.44917 10.8661 1.83754 11.1274 2.37105C11.2785 2.67704 11.2826 2.68881 11.2826 3.15172C11.2826 3.61462 11.2785 3.62639 11.1274 3.93238C10.7558 4.68166 9.91047 5.1171 9.08962 4.98372C8.44437 4.8778 7.91756 4.49728 7.63986 3.93238C7.48875 3.62639 7.48467 3.61462 7.48467 3.15172C7.48467 2.68881 7.48875 2.67704 7.63986 2.37105C8.02782 1.59039 8.90584 1.15887 9.75936 1.33148ZM4.08692 13.1826C5.58569 13.8692 5.58977 15.8542 4.08692 16.5367C3.80922 16.6662 3.72346 16.6858 3.39267 16.6976C3.09455 16.7133 2.95979 16.6976 2.73518 16.6309C1.67338 16.321 1.08939 15.2226 1.46919 14.2379C1.68563 13.6809 2.13894 13.265 2.74743 13.0689C2.84952 13.0375 3.06597 13.0218 3.33958 13.0296C3.7398 13.0375 3.7888 13.0493 4.08692 13.1826ZM16.2935 13.1866C17.2818 13.6455 17.682 14.7008 17.2246 15.6384C16.9918 16.1209 16.5957 16.4583 16.0566 16.627C15.8361 16.6976 15.7177 16.7133 15.391 16.6976C15.0398 16.6858 14.9662 16.6701 14.6804 16.5367C13.4511 15.9797 13.1694 14.4772 14.1168 13.5632C14.5334 13.163 14.9336 13.014 15.5502 13.0296C15.9505 13.0375 15.9995 13.0493 16.2935 13.1866Z" fill="#2C2C2C"/>
<path d="M9.75936 1.33148C10.3515 1.44917 10.8661 1.83754 11.1274 2.37105C11.2785 2.67704 11.2826 2.68881 11.2826 3.15172C11.2826 3.61462 11.2785 3.62639 11.1274 3.93238C10.7558 4.68166 9.91047 5.1171 9.08962 4.98372C8.44437 4.8778 7.91756 4.49728 7.63986 3.93238C7.48875 3.62639 7.48467 3.61462 7.48467 3.15172C7.48467 2.68881 7.48875 2.67704 7.63986 2.37105C8.02782 1.59039 8.90584 1.15887 9.75936 1.33148Z" fill="#2C2C2C"/>
<path d="M4.08692 13.1826C5.58569 13.8692 5.58977 15.8542 4.08692 16.5367C3.80922 16.6662 3.72346 16.6858 3.39267 16.6976C3.09455 16.7133 2.95979 16.6976 2.73518 16.6309C1.67338 16.321 1.08939 15.2226 1.46919 14.2379C1.68563 13.6809 2.13894 13.265 2.74743 13.0689C2.84952 13.0375 3.06597 13.0218 3.33958 13.0296C3.7398 13.0375 3.7888 13.0493 4.08692 13.1826Z" fill="#2C2C2C"/>
<path d="M16.2935 13.1866C17.2818 13.6455 17.682 14.7008 17.2246 15.6384C16.9918 16.1209 16.5957 16.4583 16.0566 16.627C15.8361 16.6976 15.7177 16.7133 15.391 16.6976C15.0398 16.6858 14.9662 16.6701 14.6804 16.5367C13.4511 15.9797 13.1694 14.4772 14.1168 13.5632C14.5334 13.163 14.9336 13.014 15.5502 13.0296C15.9505 13.0375 15.9995 13.0493 16.2935 13.1866Z" fill="#2C2C2C"/>
</svg>
