<svg width="21" height="20" viewBox="0 0 21 20" fill="none" xmlns="http://www.w3.org/2000/svg">
<path d="M20.25 18H18V1.5C18 1.10218 17.842 0.720644 17.5607 0.43934C17.2794 0.158035 16.8978 0 16.5 0H4.5C4.10218 0 3.72064 0.158035 3.43934 0.43934C3.15804 0.720644 3 1.10218 3 1.5V18H0.75C0.551088 18 0.360322 18.079 0.21967 18.2197C0.0790176 18.3603 0 18.5511 0 18.75C0 18.9489 0.0790176 19.1397 0.21967 19.2803C0.360322 19.421 0.551088 19.5 0.75 19.5H20.25C20.4489 19.5 20.6397 19.421 20.7803 19.2803C20.921 19.1397 21 18.9489 21 18.75C21 18.5511 20.921 18.3603 20.7803 18.2197C20.6397 18.079 20.4489 18 20.25 18ZM16.5 18H15V1.5H16.5V18ZM4.5 1.5H13.5V18H4.5V1.5ZM12 10.125C12 10.3475 11.934 10.565 11.8104 10.75C11.6868 10.935 11.5111 11.0792 11.3055 11.1644C11.1 11.2495 10.8738 11.2718 10.6555 11.2284C10.4373 11.185 10.2368 11.0778 10.0795 10.9205C9.92217 10.7632 9.81502 10.5627 9.77162 10.3445C9.72821 10.1262 9.75049 9.90005 9.83564 9.69448C9.92078 9.48891 10.065 9.31321 10.25 9.1896C10.435 9.06598 10.6525 9 10.875 9C11.1734 9 11.4595 9.11853 11.6705 9.3295C11.8815 9.54048 12 9.82663 12 10.125Z" fill="#2C2C2C"/>
</svg>
