<svg width="21" height="20" viewBox="0 0 21 20" fill="none" xmlns="http://www.w3.org/2000/svg">
<path fill-rule="evenodd" clip-rule="evenodd" d="M4.5 1.5H13.5V18H4.5V1.5ZM11.8104 10.75C11.934 10.565 12 10.3475 12 10.125C12 9.82663 11.8815 9.54048 11.6705 9.3295C11.4595 9.11853 11.1734 9 10.875 9C10.6525 9 10.435 9.06598 10.25 9.1896C10.065 9.31321 9.92078 9.48891 9.83564 9.69448C9.75049 9.90005 9.72821 10.1262 9.77162 10.3445C9.81502 10.5627 9.92217 10.7632 10.0795 10.9205C10.2368 11.0778 10.4373 11.185 10.6555 11.2284C10.8738 11.2718 11.1 11.2495 11.3055 11.1644C11.5111 11.0792 11.6868 10.935 11.8104 10.75Z" fill="#2C2C2C"/>
<path fill-rule="evenodd" clip-rule="evenodd" d="M18 18H20.25C20.4489 18 20.6397 18.079 20.7803 18.2197C20.921 18.3603 21 18.5511 21 18.75C21 18.9489 20.921 19.1397 20.7803 19.2803C20.6397 19.421 20.4489 19.5 20.25 19.5H0.75C0.551088 19.5 0.360322 19.421 0.21967 19.2803C0.0790176 19.1397 0 18.9489 0 18.75C0 18.5511 0.0790176 18.3603 0.21967 18.2197C0.360322 18.079 0.551088 18 0.75 18H3V1.5C3 1.10218 3.15804 0.720644 3.43934 0.43934C3.72064 0.158035 4.10218 0 4.5 0H16.5C16.8978 0 17.2794 0.158035 17.5607 0.43934C17.842 0.720644 18 1.10218 18 1.5V18ZM15 18H16.5V1.5H15V18ZM13.5 1.5H4.5V18H13.5V1.5Z" fill="#2C2C2C"/>
</svg>
