<svg width="80" height="80" viewBox="0 0 80 80" fill="none" xmlns="http://www.w3.org/2000/svg">
<rect width="80" height="80" rx="40" fill="#3083DC" fill-opacity="0.25"/>
<path fill-rule="evenodd" clip-rule="evenodd" d="M53.75 33.8125H48.25V29.6875C48.25 27.4995 47.3808 25.401 45.8336 23.8539C44.2865 22.3067 42.188 21.4375 40 21.4375C37.812 21.4375 35.7135 22.3067 34.1664 23.8539C32.6192 25.401 31.75 27.4995 31.75 29.6875V33.8125H26.25C25.5207 33.8125 24.8212 34.1022 24.3055 34.618C23.7897 35.1337 23.5 35.8332 23.5 36.5625V55.8125C23.5 56.5418 23.7897 57.2413 24.3055 57.757C24.8212 58.2728 25.5207 58.5625 26.25 58.5625H53.75C54.4793 58.5625 55.1788 58.2728 55.6945 57.757C56.2103 57.2413 56.5 56.5418 56.5 55.8125V36.5625C56.5 35.8332 56.2103 35.1337 55.6945 34.618C55.1788 34.1022 54.4793 33.8125 53.75 33.8125ZM36.1109 25.7984C35.0795 26.8299 34.5 28.2288 34.5 29.6875V33.8125H45.5V29.6875C45.5 28.2288 44.9205 26.8299 43.8891 25.7984C42.8576 24.767 41.4587 24.1875 40 24.1875C38.5413 24.1875 37.1424 24.767 36.1109 25.7984ZM26.25 55.8125H53.75V36.5625H26.25V55.8125Z" fill="#3083DC"/>
<path fill-rule="evenodd" clip-rule="evenodd" d="M53.75 55.8125H26.25V36.5625H53.75V55.8125ZM36.8533 40.4852C37.7274 39.7292 38.8443 39.3129 40 39.3125C41.1557 39.3129 42.2726 39.7292 43.1467 40.4852C44.0208 41.2413 44.5936 42.2866 44.7605 43.4302C44.9273 44.5738 44.6771 45.7392 44.0555 46.7135C43.4339 47.6878 42.4824 48.4058 41.375 48.7364V51.6875C41.375 52.0522 41.2301 52.4019 40.9723 52.6598C40.7144 52.9176 40.3647 53.0625 40 53.0625C39.6353 53.0625 39.2856 52.9176 39.0277 52.6598C38.7699 52.4019 38.625 52.0522 38.625 51.6875V48.7364C37.5176 48.4058 36.5661 47.6878 35.9445 46.7135C35.3229 45.7392 35.0727 44.5738 35.2395 43.4302C35.4064 42.2866 35.9792 41.2413 36.8533 40.4852Z" fill="#3083DC"/>
<path d="M40 46.1875C39.5921 46.1875 39.1933 46.0665 38.8541 45.8399C38.515 45.6133 38.2506 45.2912 38.0945 44.9143C37.9384 44.5374 37.8975 44.1227 37.9771 43.7226C38.0567 43.3225 38.2531 42.955 38.5416 42.6666C38.83 42.3781 39.1975 42.1817 39.5976 42.1021C39.9977 42.0225 40.4124 42.0634 40.7893 42.2195C41.1662 42.3756 41.4883 42.64 41.7149 42.9791C41.9415 43.3183 42.0625 43.7171 42.0625 44.125C42.0625 44.672 41.8452 45.1966 41.4584 45.5834C41.0716 45.9702 40.547 46.1875 40 46.1875Z" fill="#3083DC"/>
</svg>
