<svg width="23" height="15" viewBox="0 0 23 15" fill="none" xmlns="http://www.w3.org/2000/svg">
<path fill-rule="evenodd" clip-rule="evenodd" d="M21 12.5353C17.1938 14.2388 14.4141 13.35 11.4788 12.4116L11.475 12.4104C9.67244 11.8342 7.83606 11.2472 5.76 11.2472C4.30041 11.2543 2.85567 11.5407 1.50375 12.091V2.47222C5.31 0.768778 8.08969 1.65753 11.025 2.59597L11.0353 2.59926C13.9674 3.53667 16.9866 4.50192 21 2.91847V12.5353ZM9.58329 5.00937C10.0766 4.67973 10.6567 4.50378 11.25 4.50378C12.0456 4.50378 12.8087 4.81985 13.3713 5.38246C13.9339 5.94507 14.25 6.70813 14.25 7.50378C14.25 8.09712 14.0741 8.67714 13.7444 9.17049C13.4148 9.66384 12.9462 10.0484 12.3981 10.2754C11.8499 10.5025 11.2467 10.5619 10.6647 10.4461C10.0828 10.3304 9.54824 10.0447 9.12868 9.6251C8.70912 9.20554 8.4234 8.67099 8.30764 8.08905C8.19189 7.50711 8.2513 6.90391 8.47836 6.35573C8.70542 5.80755 9.08994 5.33901 9.58329 5.00937ZM4.5 9.00378V4.50378C4.5 4.30487 4.42098 4.1141 4.28033 3.97345C4.13968 3.8328 3.94891 3.75378 3.75 3.75378C3.55109 3.75378 3.36032 3.8328 3.21967 3.97345C3.07902 4.1141 3 4.30487 3 4.50378V9.00378C3 9.20269 3.07902 9.39346 3.21967 9.53411C3.36032 9.67476 3.55109 9.75378 3.75 9.75378C3.94891 9.75378 4.13968 9.67476 4.28033 9.53411C4.42098 9.39346 4.5 9.20269 4.5 9.00378ZM18 6.00378V10.5038C18 10.7027 18.079 10.8935 18.2197 11.0341C18.3603 11.1748 18.5511 11.2538 18.75 11.2538C18.9489 11.2538 19.1397 11.1748 19.2803 11.0341C19.421 10.8935 19.5 10.7027 19.5 10.5038V6.00378C19.5 5.80487 19.421 5.6141 19.2803 5.47345C19.1397 5.3328 18.9489 5.25378 18.75 5.25378C18.5511 5.25378 18.3603 5.3328 18.2197 5.47345C18.079 5.6141 18 5.80487 18 6.00378Z" fill="#2C2C2C"/>
<path fill-rule="evenodd" clip-rule="evenodd" d="M21.7891 1.01603C21.9162 1.02259 22.0395 1.06139 22.1475 1.12878C22.2553 1.19703 22.3439 1.29166 22.4049 1.4037C22.4659 1.51575 22.4974 1.64151 22.4963 1.76909V13.0125C22.4961 13.1529 22.4566 13.2904 22.3822 13.4094C22.3077 13.5283 22.2014 13.6241 22.0753 13.6857C20.0897 14.655 18.3422 15.0038 16.74 15.0038C14.6639 15.0038 12.8275 14.4168 11.025 13.8406L11.0212 13.8394L11.0119 13.8364C7.97224 12.8644 5.09963 11.9458 1.07906 13.9125C0.964713 13.9684 0.838038 13.9942 0.710959 13.9876C0.58388 13.9809 0.460575 13.9421 0.35265 13.8747C0.244725 13.8072 0.155728 13.7135 0.0940354 13.6022C0.0323425 13.4909 -1.76404e-05 13.3657 2.81267e-07 13.2385V1.99503C-0.000122227 1.85355 0.0397771 1.71491 0.115091 1.59514C0.190404 1.47537 0.29806 1.37934 0.425625 1.31815C4.99125 -0.911222 8.29594 0.143465 11.4834 1.1644L11.4888 1.16612C14.5253 2.13861 17.3986 3.05887 21.4209 1.09128C21.5353 1.03537 21.662 1.00947 21.7891 1.01603ZM11.475 12.4104L11.4788 12.4116C14.4141 13.35 17.1938 14.2388 21 12.5353V2.91847C16.9866 4.50192 13.9674 3.53667 11.0353 2.59926L11.025 2.59597C8.08969 1.65753 5.31 0.768778 1.50375 2.47222V12.091C2.85567 11.5407 4.30041 11.2543 5.76 11.2472C7.83606 11.2472 9.67244 11.8342 11.475 12.4104Z" fill="#2C2C2C"/>
</svg>
