<svg width="21" height="21" viewBox="0 0 21 21" fill="none" xmlns="http://www.w3.org/2000/svg">
<path fill-rule="evenodd" clip-rule="evenodd" d="M18.5916 11.8228L18.5888 11.8257C18.1406 12.2936 17.677 12.7775 17.4309 13.3716C17.1947 13.9434 17.1844 14.5969 17.175 15.2297C17.1656 15.8859 17.1553 16.5731 16.8638 16.8638C16.5722 17.1544 15.8897 17.1656 15.2297 17.175C14.5969 17.1844 13.9434 17.1947 13.3716 17.4309C12.7775 17.677 12.2936 18.1406 11.8257 18.5888L11.8228 18.5916L11.8211 18.5932C11.3529 19.0417 10.8745 19.5 10.5 19.5C10.125 19.5 9.64219 19.0387 9.17719 18.5916C8.71219 18.1444 8.22375 17.6775 7.62844 17.4309C7.05656 17.1947 6.40313 17.1844 5.77031 17.175C5.11406 17.1656 4.42688 17.1553 4.13625 16.8638C3.84562 16.5722 3.83437 15.8897 3.825 15.2297C3.81562 14.5969 3.80531 13.9434 3.56906 13.3716C3.32301 12.7775 2.85941 12.2936 2.41121 11.8257L2.40844 11.8228L2.40682 11.8211C1.95827 11.3529 1.5 10.8745 1.5 10.5C1.5 10.125 1.96125 9.64219 2.40844 9.17719C2.85562 8.71219 3.3225 8.22375 3.56906 7.62844C3.80531 7.05656 3.81562 6.40313 3.825 5.77031C3.83437 5.11406 3.84469 4.42688 4.13625 4.13625C4.42781 3.84562 5.11031 3.83437 5.77031 3.825C6.40313 3.81562 7.05656 3.80531 7.62844 3.56906C8.22252 3.32301 8.70644 2.85942 9.17429 2.41121L9.17719 2.40844L9.17887 2.40682C9.64709 1.95827 10.1255 1.5 10.5 1.5C10.875 1.5 11.3578 1.96125 11.8228 2.40844C12.2878 2.85562 12.7763 3.3225 13.3716 3.56906C13.9434 3.80531 14.5969 3.81562 15.2297 3.825C15.8859 3.83437 16.5731 3.84469 16.8638 4.13625C17.1544 4.42781 17.1656 5.11031 17.175 5.77031C17.1844 6.40313 17.1947 7.05656 17.4309 7.62844C17.677 8.22252 18.1406 8.70644 18.5888 9.17429L18.5916 9.17719L18.5932 9.17888C19.0417 9.64709 19.5 10.1255 19.5 10.5C19.5 10.875 19.0387 11.3578 18.5916 11.8228ZM14.9434 7.96279C14.9057 7.87175 14.8504 7.78903 14.7806 7.71937C14.711 7.64964 14.6283 7.59432 14.5372 7.55658C14.4462 7.51884 14.3486 7.49941 14.25 7.49941C14.1514 7.49941 14.0538 7.51884 13.9628 7.55658C13.8717 7.59432 13.789 7.64964 13.7194 7.71937L9 12.4397L7.28063 10.7194C7.13989 10.5786 6.94902 10.4996 6.75 10.4996C6.55098 10.4996 6.36011 10.5786 6.21937 10.7194C6.07864 10.8601 5.99958 11.051 5.99958 11.25C5.99958 11.449 6.07864 11.6399 6.21937 11.7806L8.46937 14.0306C8.53903 14.1004 8.62175 14.1557 8.7128 14.1934C8.80384 14.2312 8.90144 14.2506 9 14.2506C9.09856 14.2506 9.19616 14.2312 9.2872 14.1934C9.37825 14.1557 9.46097 14.1004 9.53063 14.0306L14.7806 8.78063C14.8504 8.71097 14.9057 8.62825 14.9434 8.5372C14.9812 8.44616 15.0006 8.34856 15.0006 8.25C15.0006 8.15144 14.9812 8.05384 14.9434 7.96279Z" fill="#34C759"/>
<path fill-rule="evenodd" clip-rule="evenodd" d="M19.6662 8.13086L19.6744 8.13937C20.2959 8.78719 21 9.52125 21 10.5C21 11.4788 20.2959 12.2137 19.6744 12.8606L19.6713 12.8638C19.3188 13.2322 18.9549 13.6125 18.8175 13.9453C18.6903 14.2513 18.6825 14.758 18.675 15.2493L18.675 15.2522L18.6749 15.2558C18.6609 16.1699 18.645 17.205 17.925 17.925C17.205 18.645 16.1699 18.6609 15.2558 18.6749L15.2522 18.675L15.2493 18.675C14.758 18.6825 14.2513 18.6903 13.9453 18.8175C13.6132 18.9543 13.2358 19.3153 12.8691 19.6662L12.8606 19.6744C12.2128 20.2959 11.4788 21 10.5 21C9.52125 21 8.78625 20.2959 8.13937 19.6744L8.13618 19.6713C7.7678 19.3188 7.38747 18.9549 7.05469 18.8175C6.74872 18.6903 6.24198 18.6825 5.7507 18.675L5.74781 18.675L5.7442 18.6749C4.83008 18.6609 3.79499 18.645 3.075 17.925C2.35501 17.205 2.3391 16.1699 2.32506 15.2558L2.325 15.2522L2.32496 15.2493C2.31747 14.758 2.30975 14.2513 2.1825 13.9453C2.04575 13.6132 1.68466 13.2358 1.33377 12.8691L1.32562 12.8606C0.704062 12.2128 0 11.4788 0 10.5C0 9.52125 0.704062 8.78625 1.32562 8.13937L1.32868 8.13618C1.68117 7.7678 2.04508 7.38748 2.1825 7.05469C2.30975 6.74873 2.31747 6.242 2.32496 5.75072L2.325 5.74781C2.32528 5.7341 2.32556 5.72035 2.32584 5.70658C2.34422 4.8018 2.36487 3.78513 3.075 3.075C3.79499 2.35501 4.83009 2.3391 5.7442 2.32506L5.74781 2.325L5.75106 2.32495C6.24224 2.31747 6.75067 2.30972 7.05469 2.1825C7.3868 2.04575 7.76415 1.68467 8.13086 1.33377L8.13937 1.32562C8.78719 0.704062 9.52125 0 10.5 0C11.4788 0 12.2137 0.704062 12.8606 1.32562L12.8638 1.32868C13.2322 1.68116 13.6125 2.04508 13.9453 2.1825C14.2513 2.30975 14.758 2.31747 15.2493 2.32496L15.2522 2.325L15.2558 2.32506C16.1699 2.3391 17.205 2.35501 17.925 3.075C18.645 3.79499 18.6609 4.83008 18.6749 5.7442L18.675 5.74781L18.675 5.7507C18.6825 6.24198 18.6903 6.74872 18.8175 7.05469C18.9543 7.3868 19.3153 7.76415 19.6662 8.13086ZM18.5888 11.8257L18.5916 11.8228C19.0387 11.3578 19.5 10.875 19.5 10.5C19.5 10.1255 19.0417 9.64709 18.5932 9.17888L18.5916 9.17719L18.5888 9.17429C18.1406 8.70644 17.677 8.22252 17.4309 7.62844C17.1947 7.05656 17.1844 6.40313 17.175 5.77031C17.1656 5.11031 17.1544 4.42781 16.8638 4.13625C16.5731 3.84469 15.8859 3.83437 15.2297 3.825C14.5969 3.81562 13.9434 3.80531 13.3716 3.56906C12.7763 3.3225 12.2878 2.85562 11.8228 2.40844C11.3578 1.96125 10.875 1.5 10.5 1.5C10.1255 1.5 9.64709 1.95827 9.17887 2.40682L9.17719 2.40844L9.17429 2.41121C8.70644 2.85942 8.22252 3.32301 7.62844 3.56906C7.05656 3.80531 6.40313 3.81562 5.77031 3.825C5.11031 3.83437 4.42781 3.84562 4.13625 4.13625C3.84469 4.42688 3.83437 5.11406 3.825 5.77031C3.81562 6.40313 3.80531 7.05656 3.56906 7.62844C3.3225 8.22375 2.85562 8.71219 2.40844 9.17719C1.96125 9.64219 1.5 10.125 1.5 10.5C1.5 10.8745 1.95827 11.3529 2.40682 11.8211L2.40844 11.8228L2.41121 11.8257C2.85941 12.2936 3.32301 12.7775 3.56906 13.3716C3.80531 13.9434 3.81562 14.5969 3.825 15.2297C3.83437 15.8897 3.84562 16.5722 4.13625 16.8638C4.42688 17.1553 5.11406 17.1656 5.77031 17.175C6.40313 17.1844 7.05656 17.1947 7.62844 17.4309C8.22375 17.6775 8.71219 18.1444 9.17719 18.5916C9.64219 19.0387 10.125 19.5 10.5 19.5C10.8745 19.5 11.3529 19.0417 11.8211 18.5932L11.8228 18.5916L11.8257 18.5888C12.2936 18.1406 12.7775 17.677 13.3716 17.4309C13.9434 17.1947 14.5969 17.1844 15.2297 17.175C15.8897 17.1656 16.5722 17.1544 16.8638 16.8638C17.1553 16.5731 17.1656 15.8859 17.175 15.2297C17.1844 14.5969 17.1947 13.9434 17.4309 13.3716C17.677 12.7775 18.1406 12.2936 18.5888 11.8257Z" fill="#34C759"/>
<path d="M14.7806 7.71937C14.8504 7.78903 14.9057 7.87175 14.9434 7.96279C14.9812 8.05384 15.0006 8.15144 15.0006 8.25C15.0006 8.34856 14.9812 8.44616 14.9434 8.5372C14.9057 8.62825 14.8504 8.71097 14.7806 8.78063L9.53063 14.0306C9.46097 14.1004 9.37825 14.1557 9.2872 14.1934C9.19616 14.2312 9.09856 14.2506 9 14.2506C8.90144 14.2506 8.80384 14.2312 8.7128 14.1934C8.62175 14.1557 8.53903 14.1004 8.46937 14.0306L6.21937 11.7806C6.07864 11.6399 5.99958 11.449 5.99958 11.25C5.99958 11.051 6.07864 10.8601 6.21937 10.7194C6.36011 10.5786 6.55098 10.4996 6.75 10.4996C6.94902 10.4996 7.13989 10.5786 7.28063 10.7194L9 12.4397L13.7194 7.71937C13.789 7.64964 13.8717 7.59432 13.9628 7.55658C14.0538 7.51884 14.1514 7.49941 14.25 7.49941C14.3486 7.49941 14.4462 7.51884 14.5372 7.55658C14.6283 7.59432 14.711 7.64964 14.7806 7.71937Z" fill="white"/>
</svg>
