<svg width="80" height="80" viewBox="0 0 80 80" fill="none" xmlns="http://www.w3.org/2000/svg">
<rect width="80" height="80" rx="40" fill="#4BCD6C" fill-opacity="0.25"/>
<path d="M54.7197 27.75C55.2576 27.7501 55.7735 27.9637 56.1543 28.3438C56.5352 28.724 56.75 29.24 56.75 29.7783C56.75 30.3167 56.5353 30.8326 56.1543 31.2129L35.6758 51.6562C35.4873 51.8445 35.2636 51.9938 35.0176 52.0957C34.7712 52.1976 34.5068 52.25 34.2402 52.25C33.9737 52.25 33.7092 52.1976 33.4629 52.0957C33.2783 52.0193 33.1061 51.9163 32.9521 51.79L32.8047 51.6562L23.8457 42.7119C23.4647 42.3316 23.25 41.8157 23.25 41.2773C23.2501 40.739 23.4648 40.223 23.8457 39.8428C24.2265 39.4628 24.7424 39.2491 25.2803 39.249C25.8183 39.249 26.3349 39.4626 26.7158 39.8428L34.2402 47.3535L53.2842 28.3438C53.6651 27.9635 54.1816 27.75 54.7197 27.75Z" fill="#4BCD6C" stroke="#4BCD6C" stroke-width="1.5"/>
</svg>
